<svg width="414" height="531" viewBox="0 0 414 531" fill="none" xmlns="http://www.w3.org/2000/svg">
<g opacity="0.07">
<mask id="mask0_0_4503" style="mask-type:alpha" maskUnits="userSpaceOnUse" x="0" y="0" width="414" height="531">
<rect x="0.5" y="530.5" width="530" height="413" transform="rotate(-90 0.5 530.5)" fill="#E0E0E0" stroke="#11B2A8"/>
</mask>
<g mask="url(#mask0_0_4503)">
<path d="M310.221 705.218C304.301 694.719 298.676 683.986 293.348 673.253C285.799 658.087 278.843 641.988 282.247 626.006C285.059 612.24 295.42 597.657 287.428 585.175C280.619 574.559 261.674 571.175 256.493 559.976C251.905 550.293 260.933 545.16 263.45 536.411C272.034 507.012 219.786 507.012 196.252 510.862C176.863 514.012 156.141 518.678 144.004 531.044C111.885 563.592 150.96 613.99 124.318 652.021C100.044 686.669 88.0554 723.884 100.34 764.365C113.661 808.113 179.527 842.295 235.031 826.895C257.233 820.712 276.623 809.63 297.197 800.763C310.666 795.047 325.615 788.981 341.008 789.681C350.629 790.147 365.578 797.847 371.203 786.181C374.459 779.298 366.022 772.648 358.177 768.798C333.163 756.199 321.766 725.751 310.221 705.218Z" stroke="white" stroke-miterlimit="10" stroke-linecap="round" stroke-linejoin="round"/>
<path d="M119.586 961.171C121.954 955.104 124.618 949.271 128.318 943.905C140.159 926.756 153.184 909.257 172.574 896.657C193.74 882.891 223.342 881.142 249.096 888.608C285.951 899.224 304.453 937.955 348.708 923.606C365.878 918.006 379.051 906.69 388.228 893.974C404.065 872.042 410.874 847.077 425.971 824.911C437.368 808.229 447.285 791.08 453.353 772.764C459.57 754.332 464.158 734.499 480.143 719.45C497.313 703.468 523.807 696.351 548.525 688.652C576.943 679.902 607.138 668.586 624.899 647.587C644.733 624.372 640.441 590.54 620.607 567.908C610.986 557.059 596.925 547.959 580.347 545.626C570.727 544.226 560.81 545.276 550.893 545.276C541.124 545.276 530.615 544.226 522.919 539.443C508.266 530.46 508.414 511.561 510.042 498.378C512.41 479.013 520.107 461.747 531.208 444.364C543.493 425.232 557.85 405.983 560.366 384.634C563.326 359.436 548.969 334.237 526.619 316.271C504.121 298.306 474.223 286.989 443.288 280.223C411.614 273.34 377.719 277.54 346.784 268.324C325.471 262.024 306.081 248.141 302.677 230.292C299.568 214.543 309.337 201.594 317.034 187.828C323.102 176.978 332.575 165.196 332.723 152.947C333.167 126.815 304.157 105.932 273.962 95.0828C225.858 77.817 171.982 76.3005 120.178 81.9002C96.7916 84.4668 73.4057 87.1499 50.4639 91.3497C-4.15265 101.383 -82.7471 126.814 -74.6064 181.295C-71.4982 202.177 -59.2132 221.66 -44.856 239.275C-29.4628 258.174 -10.2212 276.257 15.829 285.473C54.9042 299.239 76.662 274.273 110.261 278.357C143.268 282.323 162.213 314.521 162.065 337.97C161.769 396.767 97.0878 454.864 40.3991 487.646C20.7135 499.078 -7.7049 511.911 -10.3691 532.677C-13.3294 555.892 -4.00453 580.741 11.5368 600.223C23.3777 614.922 52.9801 642.104 40.6951 660.42C35.6627 668.003 23.9697 671.153 13.1649 672.786C-29.0186 679.086 -71.3501 674.419 -114.126 673.836C-139.584 673.486 -171.11 669.753 -194.94 678.502C-205.005 682.119 -213.294 690.052 -212.406 698.801C-211.962 704.051 -208.261 708.717 -204.709 713.267C-186.356 736.132 -168.002 758.998 -150.537 782.097C-134.995 802.746 -124.486 825.961 -124.486 850.227C-124.486 867.726 -129.371 887.441 -140.768 902.724C-149.945 914.856 -169.038 920.573 -175.847 933.989C-186.8 955.571 -166.226 985.786 -151.425 1003.29C-133.515 1024.4 -110.129 1043.77 -82.0071 1056.48C-39.0835 1075.85 14.0529 1073.16 55.3483 1052.63C77.9942 1041.43 93.0914 1023 103.452 1003.99C111.149 990.452 114.257 975.17 119.586 961.171Z" stroke="white" stroke-miterlimit="10" stroke-linecap="round" stroke-linejoin="round"/>
<path d="M259.161 485.199C269.078 488.932 278.254 494.298 285.951 501.998C297.2 513.197 303.268 527.663 302.824 541.896C302.528 550.062 300.308 558.345 303.712 566.394C306.081 572.227 310.373 577.827 313.629 583.31C324.582 601.159 321.474 616.092 319.994 635.224C318.218 658.789 327.246 682.705 344.268 702.07C358.625 718.403 383.935 736.252 411.613 726.453C417.238 724.469 421.53 720.619 424.638 716.42C434.259 703.12 431.743 686.671 429.671 671.505C424.194 631.724 449.356 591.593 465.49 555.078C468.006 549.245 472.15 539.796 469.19 533.613C465.934 526.73 453.649 523.93 446.84 519.73C431.447 510.281 426.562 493.248 429.523 478.082C431.743 466.533 437.515 453.584 446.544 444.251C453.649 436.901 461.789 433.401 462.529 423.368C464.01 400.386 435.147 382.771 409.393 377.988C394.444 375.188 378.755 375.188 364.249 371.221C346.34 366.205 321.622 346.606 347.08 335.057C356.405 330.857 367.506 330.74 378.015 329.34C388.523 327.94 399.92 324.09 403.473 316.157C407.469 307.641 400.068 297.958 390.151 293.292C380.235 288.626 368.394 287.576 356.997 285.942C334.351 282.559 312.001 276.026 294.832 263.894C269.374 245.811 272.63 226.679 269.818 202.763C266.857 177.565 231.039 164.265 200.4 156.916C165.173 148.4 127.282 141.05 92.2032 149.8C57.1244 158.549 28.8539 189.931 43.0631 216.646C57.1243 243.011 99.8999 249.194 130.686 264.36C164.137 280.693 178.198 307.875 183.527 337.39C186.635 354.889 182.491 373.788 178.346 390.82C173.906 409.136 169.909 427.452 166.653 445.884C165.617 451.834 164.581 458.133 167.097 463.85C171.242 472.949 184.119 474.582 194.923 475.166C217.125 476.449 239.919 477.966 259.161 485.199Z" stroke="white" stroke-miterlimit="10" stroke-linecap="round" stroke-linejoin="round"/>
<path d="M108.485 196.81C108.337 207.659 129.206 221.775 149.04 222.008C164.285 222.242 178.494 209.876 172.87 197.393C167.245 184.91 146.08 183.627 132.167 184.56C115.293 185.61 108.633 190.743 108.485 196.81Z" stroke="white" stroke-miterlimit="10" stroke-linecap="round" stroke-linejoin="round"/>
<path d="M380.975 486.712C367.653 464.779 356.108 442.264 343.971 419.982C339.531 411.816 312.001 386.5 305.34 407.499C302.972 414.732 312.741 420.798 314.369 428.031C315.701 433.514 312.149 439.114 312.297 444.714C312.593 455.33 325.914 463.263 333.463 471.079C342.935 480.879 351.668 491.495 356.7 503.277C359.217 509.227 361.881 516.227 369.429 518.093C377.866 520.31 386.747 513.66 387.931 506.661C388.819 499.778 384.823 493.011 380.975 486.712Z" stroke="white" stroke-miterlimit="10" stroke-linecap="round" stroke-linejoin="round"/>
<path d="M494.944 304.142C462.381 288.626 422.566 283.843 385.71 279.06C360.4 275.793 334.054 271.36 312.592 259.694C292.759 248.845 288.911 230.179 290.835 211.98C292.907 192.381 303.416 175.115 298.531 155.283C295.719 143.5 288.614 132.301 277.662 123.901C266.857 115.502 253.092 109.902 238.586 106.052C229.706 103.719 220.381 101.969 211.204 100.569C170.649 94.3861 128.465 93.6861 88.0579 100.802C27.0769 111.652 -54.6258 145.95 -37.9004 204.747C-29.7598 233.212 1.47078 256.194 37.7338 262.144C67.0402 266.927 102.859 261.094 128.317 276.027C149.927 288.743 161.916 309.741 165.468 330.274C172.425 370.755 157.328 411.703 125.061 443.784C99.0108 469.683 63.3399 487.299 31.6653 508.531C-14.0705 539.096 8.42742 584.594 41.8782 615.509C51.647 624.491 62.1558 633.241 67.9283 644.09C95.6066 695.188 -3.41369 684.688 -37.4565 681.539C-76.5317 677.922 -121.971 680.605 -158.678 691.805C-170.075 695.188 -182.36 701.604 -182.656 711.17C-182.804 716.42 -179.104 721.203 -175.552 725.636C-164.599 739.285 -149.65 753.401 -141.509 768.217C-135.737 778.6 -132.036 791.433 -128.04 802.515C-117.531 831.914 -117.975 863.762 -129.372 892.927C-134.701 906.81 -142.545 920.109 -145.505 934.342C-156.458 987.306 -87.9286 1016.82 -32.572 1026.15C-4.15367 1030.94 24.5607 1028.25 49.7227 1016.59C75.3288 1004.69 91.6102 981.706 105.375 961.524C119.584 940.758 132.758 919.059 153.331 901.91C185.302 875.312 242.879 861.196 280.622 887.328C294.831 897.127 309.928 912.06 329.762 914.043C351.372 916.143 366.025 897.477 375.794 884.994C396.071 859.096 416.349 831.331 432.778 803.799C447.136 779.883 441.215 751.068 458.977 728.203C468.893 715.253 485.767 706.271 502.344 699.271C526.322 689.238 552.816 685.038 576.794 674.889C596.036 666.723 613.501 655.057 623.122 639.657C638.663 614.809 626.526 575.027 593.076 562.311C581.975 558.112 569.69 556.712 557.553 554.962C545.564 553.212 533.131 550.762 523.362 544.929C510.189 537.113 504.268 524.163 503.824 511.564C503.676 505.848 503.528 500.481 503.824 495.115C504.268 483.332 506.34 472.133 512.261 460.117C521.29 441.918 536.831 426.052 543.788 407.153C550.596 388.837 548.08 369.005 539.051 351.506C532.243 338.207 523.51 321.524 509.301 312.308C505.156 309.391 500.124 306.708 494.944 304.142Z" stroke="white" stroke-miterlimit="10" stroke-linecap="round" stroke-linejoin="round"/>
<path d="M260.79 150.021C253.389 141.738 244.212 134.272 232.667 128.322C202.769 112.806 164.138 109.423 129.207 110.24C96.9404 111.057 54.4608 116.54 28.2626 132.056C-4.74409 151.538 -23.5416 193.419 -1.48779 223.051C7.98499 235.767 31.371 247.2 49.4284 250.933C76.8107 256.766 102.713 259.332 126.987 272.048C150.817 284.531 169.022 304.246 171.834 326.995C174.943 352.194 173.315 381.592 161.474 405.275C146.524 435.256 126.543 459.522 94.5721 480.287C73.9985 493.47 47.6522 510.269 34.1831 528.701C20.418 547.717 31.8149 577.932 42.4718 596.248C48.9843 607.447 57.569 617.83 68.2259 626.813C77.5507 634.629 87.1715 642.445 89.6877 653.645C92.6479 667.061 82.435 679.427 68.3739 686.31C45.432 697.393 13.3134 692.259 -11.8486 690.51C-50.1838 687.826 -89.259 684.676 -125.966 696.343C-137.363 699.959 -149.204 705.675 -152.312 715.008C-154.532 721.775 -151.424 728.891 -148.464 735.424C-139.139 755.606 -127.594 775.672 -122.562 796.671C-116.049 824.319 -111.757 852.318 -109.685 880.433C-108.501 898.399 -108.057 916.598 -102.58 934.097C-98.8799 945.763 -92.8114 956.029 -84.8187 964.545C-71.0536 979.128 -51.2198 988.927 -26.2057 993.244C10.6493 999.66 48.5404 993.127 75.9227 972.128C104.933 949.846 119.142 918.348 149.929 896.415C182.491 873.317 244.064 853.718 283.584 877.4C297.497 885.683 308.746 900.148 326.655 903.415C348.265 907.381 362.326 886.849 369.875 874.017C380.532 855.818 399.181 844.151 411.022 826.536C419.015 814.636 429.08 802.504 433.52 789.554C438.552 775.088 441.217 759.923 442.993 744.99C444.177 734.141 445.065 722.474 453.502 713.842C459.57 707.542 469.487 704.509 478.072 700.892C492.429 694.826 507.97 690.276 522.771 685.143C534.908 680.943 548.229 678.96 560.514 674.294C578.128 667.527 593.965 658.078 606.694 646.412C623.864 630.779 629.784 603.597 609.654 587.498C587.305 569.766 557.554 566.966 528.988 559.85C502.05 553.2 497.017 525.435 495.389 506.769C493.317 483.32 486.952 457.772 506.786 437.823C514.779 429.773 524.547 422.54 529.432 413.091C534.464 403.525 533.872 392.675 532.836 382.292C531.208 366.777 528.84 350.794 519.515 337.028C505.75 316.612 478.812 303.78 451.134 296.08C435 291.647 417.387 287.681 400.809 284.997C376.831 281.148 350.929 279.281 328.135 271.815C312.594 266.798 298.089 258.166 290.984 246.149C281.511 230.05 286.1 211.735 284.62 194.702C283.14 179.07 272.187 162.971 260.79 150.021Z" stroke="white" stroke-miterlimit="10" stroke-linecap="round" stroke-linejoin="round"/>
<path d="M284.619 531.742C284.175 520.892 272.63 512.259 260.641 506.776C223.638 489.861 150.816 486.361 123.285 518.093C112.037 530.925 113.221 547.958 114.701 563.473C117.217 590.072 124.025 616.671 114.257 642.336C104.34 668.468 88.3546 690.983 74.4414 715.832C54.7558 751.297 59.6401 791.661 103.6 811.844C141.935 829.459 189.151 846.609 233.998 832.843C251.464 827.476 266.413 818.26 282.399 810.677C298.384 803.094 316.589 796.678 335.239 798.078C342.935 798.661 350.484 800.528 358.181 800.994C365.877 801.461 374.314 800.528 379.938 796.328C386.895 790.961 387.191 781.745 382.899 774.746C378.606 767.746 371.058 762.496 363.361 757.597C336.423 740.214 323.99 710.116 310.965 685.15C302.38 668.585 294.387 656.102 295.868 637.203C296.756 624.604 300.752 611.538 299.864 598.938C299.124 589.839 294.239 581.206 286.987 574.206C277.514 565.107 274.406 559.39 279.882 547.608C282.25 542.591 284.915 537.575 284.915 532.325C284.619 532.092 284.619 531.858 284.619 531.742Z" stroke="white" stroke-miterlimit="10" stroke-linecap="round" stroke-linejoin="round"/>
<path d="M109.966 719.686C102.418 752.934 118.255 789.332 151.262 811.264C182.64 832.03 222.9 826.547 255.018 810.215C270.856 802.282 294.242 794.932 306.527 784.083C318.812 773.233 319.7 757.017 314.223 743.718C308.007 728.669 295.13 716.069 285.361 702.187C266.859 676.055 259.459 645.257 264.047 615.508C265.823 604.425 280.624 593.576 273.224 582.726C266.859 573.394 250.726 571.06 245.101 561.028C239.181 550.411 249.394 537.696 244.509 526.846C240.809 518.797 229.708 514.247 218.903 513.78C208.098 513.313 197.589 516.113 187.525 519.03C167.839 524.513 150.522 533.029 145.341 550.062C141.789 561.728 143.565 573.86 146.081 585.643C148.449 597.426 151.41 609.442 149.782 621.341C147.413 638.957 135.424 654.356 125.952 670.105C115.591 686.671 113.815 702.187 109.966 719.686Z" stroke="white" stroke-miterlimit="10" stroke-linecap="round" stroke-linejoin="round" stroke-dasharray="8 8"/>
<path d="M235.034 383.586C232.222 392.569 231.63 401.785 235.034 410.768C242.287 429.667 265.081 441.449 284.766 453.699C303.86 465.598 313.481 477.614 319.697 495.58C325.174 511.096 340.123 517.395 353.148 530.228C364.397 541.194 370.465 555.077 379.642 567.093C382.306 570.593 385.859 574.559 391.039 574.792C398.588 575.142 402.584 567.909 404.064 562.076C414.869 518.445 406.432 472.014 380.53 432.583C366.765 411.584 350.188 388.135 322.953 377.403C309.928 372.27 295.423 365.27 293.647 353.837C292.759 347.771 295.571 340.888 291.279 335.872C286.839 330.739 276.774 330.505 269.965 333.772C263.157 337.038 259.012 342.638 255.164 348.004C247.023 359.204 238.883 371.22 235.034 383.586Z" stroke="white" stroke-miterlimit="10" stroke-linecap="round" stroke-linejoin="round" stroke-dasharray="8 8"/>
<path d="M331.245 367.255C325.62 362.938 320.44 357.455 319.7 352.089C318.367 343.106 327.396 335.523 324.14 325.724C321.476 317.674 310.967 313.008 300.902 310.558C285.065 306.591 267.155 305.308 255.314 296.208C242.733 286.642 240.957 271.476 241.549 257.71C242.289 241.378 245.842 215.479 235.925 200.663C226.008 185.848 201.882 178.848 182.936 174.065C151.41 166.132 100.642 154.583 73.7035 177.215C44.3971 201.947 73.9995 222.246 101.086 234.612C161.327 261.91 205.878 311.958 202.474 367.488C201.882 376.704 200.55 385.92 200.846 395.02C201.586 413.102 213.131 436.201 229.708 448.45C242.289 457.783 257.387 464.666 270.56 473.299C296.166 489.982 314.667 511.331 324.88 535.713C336.869 564.528 359.959 586.577 359.071 618.658C358.775 628.458 356.555 638.257 358.923 647.823C361.439 657.39 370.616 666.839 382.901 667.306C394.742 667.656 404.659 659.373 407.767 650.39C411.615 638.957 409.691 626.824 410.579 615.158C411.615 602.209 417.832 591.243 424.936 579.694C430.857 570.011 436.777 559.278 436.481 548.312C436.037 536.646 427.452 527.313 424.048 516.23C418.72 498.148 418.128 479.132 422.716 460.816C427.008 443.901 435.149 425.468 424.64 410.303C414.723 396.07 396.518 394.32 379.2 389.187C366.175 385.337 351.522 379.387 340.125 372.971C337.313 371.571 334.205 369.588 331.245 367.255Z" stroke="white" stroke-miterlimit="10" stroke-linecap="round" stroke-linejoin="round"/>
<path d="M153.775 237.875C165.024 245.458 173.905 255.491 179.233 265.407C182.341 271.357 184.561 277.656 189.446 282.906C194.182 288.156 202.619 292.006 210.464 290.256C215.792 289.089 219.788 285.589 222.897 281.973C239.326 263.074 240.658 236.592 226.005 216.76C209.575 194.478 177.161 187.361 147.854 180.362C126.393 175.229 79.0287 173.479 82.285 200.194C84.8012 220.726 108.039 221.426 126.985 225.859C136.458 228.076 145.634 232.392 153.775 237.875Z" stroke="white" stroke-miterlimit="10" stroke-linecap="round" stroke-linejoin="round"/>
<path d="M278.106 211.746C278.106 206.73 277.81 201.714 276.626 196.697C270.113 169.865 236.366 154.583 207.208 144.317C178.05 134.051 144.451 131.251 112.924 135.217C91.6105 137.9 70.2966 143.383 53.5712 154.116C36.8459 164.849 25.1529 181.531 26.7811 198.447C28.4092 216.88 43.0624 236.828 65.1163 243.945C77.4013 247.911 89.0942 252.928 100.935 257.127C111.74 260.86 122.101 263.194 131.87 268.793C149.927 279.293 162.656 294.459 170.797 310.791C177.309 323.624 177.161 337.273 178.494 350.689C181.454 380.088 167.985 405.403 154.812 432.002C149.779 442.268 131.722 465.483 140.602 476.333C144.747 481.466 152.443 484.032 159.992 484.965C167.541 485.782 175.237 484.965 182.934 484.732C210.02 483.682 237.55 488.349 261.528 498.381C283.138 507.248 297.791 526.497 294.831 545.979C293.795 552.162 291.279 558.345 292.315 564.411C293.795 572.577 301.196 579.11 305.784 586.46C314.961 601.393 311.704 619.008 310.224 635.691C308.596 655.64 317.033 671.272 326.062 689.355C334.646 706.504 351.224 726.569 372.537 735.319C390.299 742.552 414.425 740.919 427.302 728.903C436.331 720.503 438.699 708.837 438.847 697.754C439.291 675.939 441.807 654.007 447.728 632.658C450.984 620.758 452.168 607.692 457.348 596.26C461.937 586.11 467.561 575.027 474.37 565.694C479.994 557.995 487.247 551.462 486.211 541.662C484.879 527.663 474.222 523.93 462.233 516.58C450.392 509.464 441.511 493.132 442.399 481.582C444.027 462.567 460.457 449.267 470.374 433.168C482.955 412.636 458.977 389.304 436.775 380.321C417.681 372.621 395.923 369.938 375.646 364.572C365.285 361.888 353.296 355.706 355.368 347.306C357.292 339.49 369.429 336.923 379.198 335.057C390.299 332.957 401.4 329.457 409.244 322.924C409.985 322.224 410.725 321.641 411.465 320.941C435.887 297.725 389.707 288.392 368.541 284.543C333.314 278.126 288.911 269.843 280.03 237.528C277.662 229.129 278.254 220.379 278.106 211.746Z" stroke="white" stroke-miterlimit="10" stroke-linecap="round" stroke-linejoin="round"/>
<path d="M-82.1548 204.395C-114.865 160.181 -197.456 235.543 -212.257 258.176C-220.694 271.008 -225.43 284.191 -230.315 297.957C-241.86 330.505 -261.397 362.47 -276.643 393.968C-284.191 409.484 -291.592 427.333 -281.527 442.033C-273.09 454.399 -254.441 460.348 -236.827 462.565C-196.568 467.581 -132.479 467.348 -119.454 506.312C-112.349 527.428 -133.959 542.827 -154.829 552.743C-164.893 557.527 -175.698 561.843 -184.135 568.493C-212.701 591.125 -182.803 621.69 -155.421 633.823C-128.631 645.722 -92.6636 650.272 -63.8012 640.822C-44.2636 634.406 -29.6105 615.857 -38.3432 600.691C-46.6319 586.342 -68.3897 580.042 -79.6386 567.209C-93.2557 551.81 -83.4868 531.045 -69.1296 517.629C-55.6605 505.146 -37.0111 496.746 -18.3616 489.513C22.4898 473.881 70.4456 459.182 93.5355 426.517C105.821 409.134 116.774 381.486 109.373 361.42C102.712 343.104 78.1424 326.072 58.1608 316.622C49.7241 312.656 39.9553 310.673 30.7785 307.406C10.3529 300.057 -8.14864 289.557 -23.9859 277.075C-46.3358 259.459 -63.5053 237.877 -76.0863 215.011C-77.7144 211.511 -79.6386 207.778 -82.1548 204.395Z" stroke="white" stroke-miterlimit="10" stroke-linecap="round" stroke-linejoin="round"/>
<path d="M490.357 226.908C467.267 213.259 455.278 188.527 461.791 166.361C467.859 145.712 497.314 108.381 461.643 93.9151C448.914 88.782 433.52 91.6987 420.199 95.7818C410.134 98.9316 400.218 102.665 391.189 107.448C377.424 114.681 360.402 124.13 352.557 135.913C345.453 146.646 345.009 159.712 346.341 171.261C347.969 186.194 347.969 201.709 357.886 215.242C370.023 231.924 389.117 244.057 410.578 252.573C421.383 256.89 433.668 261.44 445.509 263.423C464.011 266.573 482.216 276.022 501.606 275.439C509.599 275.206 518.035 271.939 520.995 266.106C522.92 262.373 522.328 258.057 521.291 254.09C518.183 240.907 510.487 236.591 496.721 230.291C494.501 229.241 492.281 228.075 490.357 226.908Z" stroke="white" stroke-miterlimit="10" stroke-linecap="round" stroke-linejoin="round"/>
<path d="M885.992 -50.9766C868.231 -61.7094 848.397 -70.459 828.268 -78.1586C786.824 -93.7911 737.24 -104.174 691.652 -108.724C643.696 -113.507 596.925 -104.524 551.337 -92.7411C519.958 -84.5749 490.8 -72.4421 458.829 -65.7924C402.437 -54.1264 343.38 -41.2937 285.359 -49.4599C253.684 -53.893 225.71 -58.5596 195.516 -45.6102C183.971 -40.5938 173.462 -33.7109 165.765 -25.1946C157.921 -16.5618 156.44 -8.51209 152.888 1.2874C146.08 19.9531 130.242 36.6354 109.076 46.6682C91.019 55.3011 69.5574 58.8009 48.5396 57.6343C33.4424 56.7011 6.50403 53.6679 -2.67273 42.9351C-8.00116 36.6355 -7.85315 28.3525 -5.63297 21.0029C-3.5608 13.6533 0.287625 6.53712 1.32371 -1.04582C2.80383 -11.8952 -1.63664 -23.2113 -10.8134 -31.3776C-21.6183 -41.0604 -36.4195 -44.7936 -52.2568 -43.977C-66.91 -43.1603 -83.4874 -43.0437 -95.1803 -51.4433C-108.057 -60.7761 -108.501 -77.3419 -101.397 -89.9412C-94.2922 -102.541 -81.4151 -112.457 -69.7221 -122.839C-58.0292 -133.222 -46.7802 -144.772 -44.708 -158.538C-39.5276 -190.736 -79.343 -217.801 -116.79 -220.951C-157.789 -224.451 -193.904 -200.885 -232.091 -193.069C-260.214 -187.353 -291.74 -187.586 -316.606 -199.486C-336.292 -208.935 -353.313 -225.617 -376.403 -224.684C-395.793 -223.868 -421.399 -205.435 -424.655 -190.036C-428.948 -170.087 -411.482 -145.005 -395.941 -130.422C-374.775 -110.707 -343.989 -100.324 -315.422 -89.0079C-292.332 -79.7917 -270.427 -68.7089 -250.297 -55.8763C-215.07 -33.5941 -199.085 -1.86257 -195.237 33.2523C-194.644 38.152 -194.496 43.1685 -194.496 48.0682C-194.496 66.3839 -196.569 87.0329 -203.969 104.649C-211.666 122.964 -230.315 140.23 -243.784 156.563C-248.373 162.162 -252.961 167.879 -255.033 174.295C-259.178 187.478 -251.629 201.01 -244.229 213.26C-237.124 225.042 -228.391 231.225 -212.85 224.576C-199.085 218.626 -188.872 208.593 -176.587 201.01C-158.233 189.694 -134.552 183.861 -119.01 170.212C-105.097 158.079 -99.4726 141.63 -90.8879 126.697C-75.9387 100.682 -45.1522 88.0827 -11.7014 80.9664C55.3481 66.6172 129.206 63.1174 198.476 67.6671C223.342 69.3004 249.54 72.6836 272.334 80.8498C296.608 89.4827 317.182 100.099 344.86 101.615C371.502 103.015 395.924 96.1324 418.718 85.8663C435.591 78.2833 451.577 68.7172 470.226 64.2841C487.099 60.201 507.821 67.4338 520.55 76.4167C557.257 102.315 551.633 151.546 537.572 184.794C516.406 234.842 554.297 255.257 598.553 286.406C630.967 309.271 677.147 322.22 720.663 316.737C742.125 314.054 762.402 306.471 777.943 294.455C801.181 276.373 800.885 255.024 811.542 232.625C822.939 209.06 843.513 188.411 865.419 170.328C887.028 152.479 910.414 135.914 928.916 116.081C941.645 102.432 952.154 86.9162 956.742 70.1171C964.291 42.9352 948.157 9.10362 929.952 -13.7618C918.407 -28.4611 903.162 -40.5938 885.992 -50.9766Z" stroke="white" stroke-miterlimit="10" stroke-linecap="round" stroke-linejoin="round"/>
<path d="M-122.119 231.931C-126.856 230.764 -132.332 230.764 -138.105 232.164C-159.566 237.53 -177.032 257.713 -187.097 272.529C-199.382 290.844 -206.634 311.026 -215.367 330.509C-220.843 342.641 -227.06 354.657 -235.349 365.624C-242.601 375.19 -249.706 381.139 -252.518 392.106C-257.402 410.888 -259.919 431.42 -234.016 441.103C-219.955 446.353 -203.674 444.486 -188.133 444.719C-166.671 444.953 -145.209 449.502 -126.412 457.552C-110.426 464.435 -100.657 478.668 -83.044 482.867C-80.3798 483.451 -77.4195 484.034 -74.1633 484.267C-55.5137 485.901 -37.0123 481.118 -19.6949 475.518C2.06291 468.518 22.9327 460.002 42.7664 450.086C64.5242 439.236 81.2494 422.437 80.2133 400.972C79.1773 380.206 52.6832 364.224 36.8459 349.874C17.0123 331.792 -8.29783 330.392 -36.4201 323.976C-57.8819 319.076 -79.9357 309.976 -88.9645 293.877C-95.033 283.028 -94.145 270.662 -96.6612 258.879C-99.4734 247.446 -108.502 235.197 -122.119 231.931Z" stroke="white" stroke-miterlimit="10" stroke-linecap="round" stroke-linejoin="round"/>
<path d="M104.044 78.8648C139.863 76.6482 176.126 73.8483 211.945 76.8815C234.887 78.8647 257.977 82.9479 278.994 90.5308C289.651 94.3806 299.864 99.2803 308.745 105.463C315.849 110.48 327.542 116.313 332.279 122.846C336.423 128.679 334.943 138.245 335.979 144.895C337.311 152.944 336.127 161.227 332.575 168.81C325.174 185.026 315.997 202.408 321.178 219.907C324.878 232.39 335.831 242.889 349.152 250.356C361.141 257.122 374.462 260.738 387.783 265.405C399.772 269.605 411.613 269.955 424.638 271.121C425.082 271.121 425.378 271.238 425.822 271.238C441.216 272.638 456.609 275.321 471.114 279.638C484.583 283.604 494.5 291.77 509.153 293.403C512.558 293.753 516.258 293.87 519.218 295.387C524.547 297.953 525.731 303.32 528.691 307.286C531.799 311.486 536.092 315.336 539.94 319.069C549.857 328.752 559.182 339.251 564.362 351.034C572.503 369.233 570.134 389.532 562.586 407.964C555.037 426.396 538.312 442.029 531.207 460.111C524.695 476.327 523.807 494.993 523.807 511.792C523.807 519.725 524.843 528.474 531.799 534.308C541.716 542.59 558.441 541.307 572.799 542.357C595.148 543.99 616.314 553.323 630.375 567.206C645.621 582.138 649.913 597.071 646.657 616.436C641.624 646.652 621.495 667.184 589.376 683.166C573.243 691.216 555.925 693.432 539.052 699.032C507.525 709.648 479.847 732.28 468.006 757.479C462.233 769.728 458.977 781.745 452.613 793.877C444.768 808.46 437.367 823.276 430.263 837.975C421.382 856.291 412.205 877.406 399.18 895.722C393.852 903.188 387.783 910.188 380.679 916.254C366.914 928.27 346.34 937.02 325.47 936.553C304.897 935.97 287.579 919.987 272.334 910.304C245.1 893.039 216.089 886.856 183.822 899.688C137.347 918.237 131.426 956.852 120.325 992.667C115.589 1007.95 106.264 1023.58 93.9791 1036.06C83.3222 1046.8 68.3731 1054.61 53.7199 1061.5C22.0452 1076.31 -17.474 1082.96 -53.589 1076.31C-120.194 1064.06 -170.075 1014.02 -187.836 964.085C-193.609 947.636 -191.684 935.62 -176.439 922.787C-168.891 916.371 -160.158 910.888 -153.497 903.888C-135.144 885.106 -127.595 863.057 -132.776 839.491C-137.216 819.542 -149.205 801.11 -162.97 783.961C-176.883 766.345 -189.76 748.38 -202.637 730.297C-211.666 717.698 -235.792 697.516 -223.211 682.583C-217.735 676.05 -208.41 672.2 -199.085 669.517C-171.555 661.467 -136.92 665.317 -107.762 665.551C-75.3468 665.667 -41.8961 669.867 -9.62944 668.7C11.6843 668 27.5216 656.684 25.3014 639.302C23.9693 628.803 15.0886 619.936 7.98405 610.953C-6.52115 592.521 -24.5787 568.722 -25.0227 546.557C-25.3188 529.408 -15.8459 509.925 2.80362 500.476C23.9694 489.743 45.2831 481.694 64.2287 468.278C96.7914 445.295 122.249 415.664 136.311 382.999C147.708 356.633 145.931 317.785 113.369 300.986C82.2861 284.887 46.0231 300.87 12.7204 289.087C-4.74507 282.904 -17.9181 271.121 -29.907 259.455C-44.2642 245.456 -57.7334 230.64 -68.0943 214.541C-77.271 200.425 -88.668 180.009 -85.1157 163.677C-71.9426 102.78 36.5504 83.1812 100.344 79.4481C101.38 79.0981 102.712 78.9814 104.044 78.8648Z" stroke="white" stroke-miterlimit="10" stroke-linecap="round" stroke-linejoin="round"/>
<path d="M125.802 355.822C126.098 336.456 114.405 317.674 90.5753 311.257C80.0665 308.458 74.5901 305.308 63.4892 304.841C53.4244 304.374 43.5075 302.741 34.0347 300.175C14.7932 295.042 -2.82031 286.409 -17.6215 275.559C-43.0796 256.894 -60.989 232.628 -75.6422 207.78C-79.1945 201.713 -83.1909 192.38 -90.2954 188.297C-98.2881 183.631 -112.941 186.081 -121.526 188.297C-144.764 194.13 -157.345 205.096 -175.698 216.062C-193.312 226.679 -209.889 238.578 -221.434 253.744C-227.059 261.21 -233.127 269.26 -237.864 277.076C-250.741 298.425 -256.957 324.323 -266.134 346.956C-274.719 368.071 -292.628 385.804 -298.105 407.852C-302.101 424.185 -298.697 442.617 -284.043 454.633C-264.062 470.966 -232.239 470.616 -205.893 474.699C-178.511 478.899 -148.168 490.448 -136.771 511.914C-124.782 534.429 -165.19 549.945 -184.135 560.678C-198.64 568.844 -206.337 586.576 -202.637 600.459C-197.012 622.041 -177.623 644.79 -150.832 653.073C-118.122 663.106 -77.8625 661.706 -43.5236 660.539C-31.6827 660.189 -19.2497 658.206 -10.813 651.79C3.8402 640.59 -0.156091 620.991 -10.2209 606.992C-20.2857 592.993 -35.235 580.977 -41.3035 565.694C-52.4044 537.229 -40.4153 510.164 -9.03675 493.598C10.2048 483.448 32.4066 477.149 51.9442 467.349C97.8279 443.667 125.062 398.519 125.802 355.822Z" stroke="white" stroke-miterlimit="10" stroke-linecap="round" stroke-linejoin="round"/>
<path d="M654.945 -120.849C627.119 -119.8 599.292 -115.95 572.206 -109.3C541.123 -101.6 512.705 -91.101 481.475 -83.5181C446.544 -75.1186 411.317 -66.719 375.35 -61.3526C338.495 -55.8696 307.412 -57.7361 271.149 -64.8524C220.233 -74.8852 170.353 -52.0197 151.704 -13.755C145.487 -1.03905 142.823 12.9602 133.202 24.1596C110.112 50.9916 29.1496 69.3072 11.2402 28.3594C6.7998 18.0933 11.6842 6.8939 12.5723 -3.95553C13.7564 -18.6548 7.09594 -33.5874 -5.48509 -44.4368C-6.37316 -45.1368 -7.26131 -45.8367 -8.14938 -46.5366C-20.5824 -56.1028 -37.7517 -61.7026 -55.0691 -61.9359C-64.5419 -62.0526 -75.1988 -61.0027 -82.4514 -65.9024C-89.704 -70.8021 -89.8521 -79.6683 -87.3359 -86.9013C-79.9353 -108.017 -55.9574 -122.833 -44.1164 -142.665C-33.0155 -161.331 -33.6075 -184.079 -45.8925 -202.162C-58.1775 -220.478 -84.9676 -236.46 -111.906 -237.277C-173.775 -239.027 -223.063 -198.312 -285.376 -205.662C-302.249 -207.645 -318.531 -212.428 -333.036 -219.544C-346.061 -225.961 -352.722 -234.594 -368.855 -235.06C-394.609 -235.76 -422.879 -224.327 -431.76 -204.495C-451.594 -160.631 -411.482 -124.466 -366.783 -102.767C-343.397 -91.451 -318.087 -82.7015 -295.441 -70.6855C-224.395 -33.0041 -182.804 32.9092 -214.034 98.7057C-222.471 116.555 -234.904 133.004 -249.261 148.286C-258.882 158.436 -288.484 176.752 -283.896 191.101C-282.416 195.417 -277.531 198.334 -273.387 201.367C-267.615 205.45 -262.878 210.117 -258.882 215.366C-252.073 224.466 -252.813 238.465 -235.348 238.582C-227.651 238.582 -220.547 235.665 -214.182 232.399C-200.565 225.282 -189.76 215.6 -176.883 207.9C-152.165 192.851 -113.534 186.901 -99.621 163.336C-90.1482 147.353 -89.1121 128.921 -72.9788 115.855C-54.7733 101.156 -28.8711 93.806 -4.3011 88.2063C45.1349 77.0069 99.8995 73.3904 151.408 72.5737C178.198 72.1071 206.616 71.6405 233.554 75.3736C262.417 79.3401 282.99 89.6062 307.561 101.272C336.127 114.921 373.574 108.388 401.992 97.889C429.226 87.8562 467.117 69.8905 497.312 83.6565C515.073 91.8227 524.398 108.272 526.47 124.371C530.763 157.153 503.38 196.584 525.878 227.149C532.095 235.549 540.087 243.248 543.64 252.581C545.564 257.597 546.156 263.08 550.3 267.047C555.037 271.48 562.733 272.996 569.69 274.746C595.148 281.046 601.364 301.112 621.346 311.844C644.14 324.094 672.558 329.577 699.941 327.36C735.611 324.444 783.123 307.178 801.773 281.863C809.025 271.947 811.838 260.514 815.982 249.548C825.011 225.166 844.104 203.467 869.71 188.651C903.457 169.169 931.135 143.853 951.561 115.155C961.034 101.739 971.247 87.7395 971.839 72.3403C971.839 71.2904 971.839 70.3571 971.987 69.3072C972.579 35.5923 960.738 1.64412 936.908 -26.4711C909.526 -58.6694 872.079 -72.3186 830.191 -89.701C798.369 -103 763.734 -112.1 728.211 -116.883C704.085 -120.616 679.515 -121.783 654.945 -120.849Z" stroke="white" stroke-miterlimit="10" stroke-linecap="round" stroke-linejoin="round"/>
<path d="M499.238 147.466C497.757 152.599 496.129 157.732 494.797 162.865C491.689 174.298 489.913 186.43 494.649 197.513C499.681 209.296 511.226 218.395 520.403 228.428C532.392 241.261 544.085 266.226 527.508 279.759C513.743 291.075 491.393 283.959 476.592 278.126C446.989 266.46 414.13 266.226 384.232 254.794C367.507 248.377 352.261 238.228 344.861 224.695C337.312 210.579 338.2 195.063 338.94 180.131C339.828 165.432 336.868 150.616 342.937 136.383C347.821 124.95 359.662 119.584 371.799 113.168C384.676 106.401 397.997 99.9851 412.206 95.202C429.524 89.4856 460.162 81.6693 478.368 89.4856C494.353 96.3686 503.382 115.034 502.79 128.45C502.494 134.867 501.014 141.166 499.238 147.466Z" stroke="white" stroke-miterlimit="10" stroke-linecap="round" stroke-linejoin="round"/>
<path d="M246.577 -33.1265C228.668 -26.3602 215.199 -13.2942 213.57 3.1549C211.646 23.1039 228.52 42.4695 250.869 51.1024C271.739 59.0353 295.717 60.0852 318.807 58.9186C346.929 57.6353 374.756 56.4688 402.73 55.5355C432.776 54.4856 465.487 48.1858 495.089 54.0189C522.028 59.2686 543.637 74.2011 553.11 94.8501C557.846 105.233 559.327 116.082 558.735 127.048C558.439 132.065 559.327 137.314 558.587 142.214C556.514 155.863 553.406 170.213 551.186 183.512C548.522 198.911 549.706 214.077 556.366 228.776C576.94 273.807 647.394 301.689 705.119 284.89C731.465 277.191 753.223 260.275 763.435 239.626C772.464 221.193 772.316 200.661 779.125 181.646C786.673 160.88 802.215 142.331 820.864 126.465C844.546 106.399 895.018 86.9171 895.166 55.4187C895.314 38.7363 877.849 25.6704 861.419 15.2876C837.737 0.121758 813.463 -14.9275 789.041 -29.3934C765.656 -43.3927 739.901 -54.9421 712.815 -63.6916C676.996 -75.3577 624.896 -89.5903 586.265 -82.3573C557.402 -76.8743 530.02 -63.925 501.898 -55.9921C473.184 -47.9425 443.729 -41.1761 413.979 -35.9264C397.993 -33.1265 382.452 -33.7099 366.467 -33.3599C349.741 -33.0099 334.644 -32.5432 317.919 -34.6431C301.638 -36.6264 285.06 -39.0762 268.631 -37.7929C260.786 -37.3263 253.386 -35.693 246.577 -33.1265Z" stroke="white" stroke-miterlimit="10" stroke-linecap="round" stroke-linejoin="round"/>
<path d="M366.321 -23.7904C348.264 -25.5403 330.502 -28.8068 312.445 -30.2067C278.846 -32.7733 232.814 -25.5403 225.265 5.49139C219.789 28.1235 256.2 45.5059 279.29 50.0557C298.679 53.9055 321.769 54.6055 341.603 52.1556C359.365 49.939 377.274 48.8891 395.331 47.3725C435.147 43.9894 473.334 39.3229 511.669 52.8555C531.651 59.8552 549.116 72.1045 557.405 88.087C569.986 112.586 561.401 143.967 558.293 169.399C556.517 183.632 551.336 198.915 554.889 213.264C558.589 227.846 569.69 240.679 583.455 250.828C619.866 277.544 663.085 285.827 705.861 262.494C737.684 245.112 746.564 207.664 756.333 180.016C763.438 159.6 772.762 138.484 792.596 124.135C815.094 108.036 850.173 101.27 862.162 79.2208C874.595 56.3553 854.613 30.8067 832.263 13.3076C803.993 -8.97458 770.098 -26.8236 734.575 -41.1728C698.756 -55.6388 663.529 -66.0216 622.678 -65.905C581.531 -65.7883 543.788 -53.8888 505.304 -43.5061C461.197 -31.84 413.241 -19.3573 366.321 -23.7904Z" stroke="white" stroke-miterlimit="10" stroke-linecap="round" stroke-linejoin="round"/>
<path d="M474.372 404.117C477.776 412.517 481.18 423.25 492.281 424.416C502.642 425.583 510.043 416.833 513.299 409.017C520.996 390.468 520.107 369.936 510.931 351.853C501.754 333.771 484.288 318.372 462.531 309.156C456.018 306.356 448.025 304.139 441.217 306.473C427.156 311.256 429.08 327.821 416.647 334.471C408.358 339.021 381.272 342.87 395.629 355.82C401.254 360.836 413.835 360.72 421.531 362.703C429.524 364.686 437.073 367.603 444.029 371.452C458.09 379.502 469.191 391.051 474.372 404.117Z" stroke="white" stroke-miterlimit="10" stroke-linecap="round" stroke-linejoin="round" stroke-dasharray="8 8"/>
<path d="M-119.012 314.293C-129.224 301.81 -147.874 274.978 -170.668 289.444C-195.534 305.193 -196.718 331.325 -208.263 352.674C-217.736 370.173 -229.429 386.972 -235.497 405.404C-237.273 411.004 -238.605 417.187 -235.053 422.32C-229.281 430.836 -214.331 431.536 -202.046 431.886C-179.845 432.47 -157.791 435.503 -136.773 440.986C-118.42 445.769 -100.954 454.752 -81.8606 457.318C-59.2147 460.352 -34.2006 450.902 -19.1034 438.069C-4.59821 425.703 3.24651 408.671 2.06241 391.988C0.878313 373.323 -12.1467 361.773 -33.6085 355.59C-49.4458 351.041 -65.2831 349.874 -80.2323 343.108C-96.0696 335.875 -109.391 326.075 -119.012 314.293Z" stroke="white" stroke-miterlimit="10" stroke-linecap="round" stroke-linejoin="round"/>
<path d="M99.7528 522.529C103.305 517.629 107.005 510.746 101.381 507.363C98.1246 505.38 93.5362 506.08 89.8359 507.13C65.8579 514.013 51.9448 535.128 51.3528 555.194C50.7607 575.376 60.9735 594.625 72.8145 612.474C74.5906 615.157 76.5149 617.957 79.6232 619.941C82.5834 621.924 87.0236 622.857 90.5759 621.457C96.0524 619.357 96.3485 613.408 95.9045 608.625C94.2764 591.475 95.3125 574.443 92.2042 557.527C89.688 544.111 90.576 535.128 99.7528 522.529Z" stroke="white" stroke-miterlimit="10" stroke-linecap="round" stroke-linejoin="round" stroke-dasharray="8 8"/>
</g>
</g>
</svg>
